<?xml version="1.0" standalone="no"?>
<!DOCTYPE svg PUBLIC "-//W3C//DTD SVG 20010904//EN"
 "http://www.w3.org/TR/2001/REC-SVG-20010904/DTD/svg10.dtd">
<svg version="1.0" xmlns="http://www.w3.org/2000/svg"
 width="425.000000pt" height="425.000000pt" viewBox="0 0 425.000000 425.000000"
 preserveAspectRatio="xMidYMid meet">

<g transform="translate(0.000000,425.000000) scale(0.100000,-0.100000)"
fill="#000000" stroke="none">
<path d="M3256 3871 c-4 -6 -3 -19 3 -28 9 -17 10 -17 17 0 8 21 -10 45 -20
28z"/>
<path d="M3190 3694 c0 -14 4 -23 10 -19 6 3 10 15 10 26 0 10 -4 19 -10 19
-5 0 -10 -12 -10 -26z"/>
<path d="M3225 3597 c-4 -10 -5 -21 -1 -24 10 -10 18 4 13 24 -4 17 -4 17 -12
0z"/>
<path d="M2997 3550 c-21 -35 -15 -50 18 -50 15 0 31 10 42 26 16 25 16 27 -2
40 -28 20 -39 17 -58 -16z"/>
<path d="M2680 3505 c-10 -13 -9 -15 9 -15 12 0 21 6 21 15 0 8 -4 15 -9 15
-5 0 -14 -7 -21 -15z"/>
<path d="M3647 3454 c-11 -11 3 -24 24 -24 12 0 19 5 17 13 -5 14 -31 21 -41
11z"/>
<path d="M2886 3382 c-10 -17 3 -52 19 -52 23 0 26 17 7 41 -13 15 -21 19 -26
11z"/>
<path d="M3524 3313 c-7 -27 14 -53 43 -53 18 0 35 44 19 49 -6 2 -15 10 -19
17 -13 23 -36 16 -43 -13z"/>
<path d="M3368 3298 c-20 -17 -48 -59 -48 -73 0 -6 20 -21 44 -32 51 -25 66
-17 66 37 0 74 -23 99 -62 68z"/>
<path d="M2770 3285 c-9 -11 -11 -22 -4 -32 14 -23 29 -20 32 6 5 32 -11 46
-28 26z"/>
<path d="M2994 3286 c-6 -15 22 -66 35 -66 18 0 19 14 4 46 -18 36 -30 43 -39
20z"/>
<path d="M2584 3247 c-60 -65 -60 -65 -29 -97 15 -16 31 -27 35 -25 5 3 24 -2
44 -10 19 -8 38 -15 41 -15 13 0 3 39 -16 61 -12 14 -18 31 -15 44 3 11 -3 33
-12 48 l-18 27 -30 -33z"/>
<path d="M2717 3233 c-4 -3 -7 -17 -7 -30 0 -16 6 -23 19 -23 27 0 34 15 19
40 -14 21 -20 24 -31 13z"/>
<path d="M2405 3221 c-3 -5 -27 -17 -54 -26 -37 -12 -55 -25 -70 -51 -22 -37
-21 -45 12 -81 27 -30 33 -29 41 7 4 21 11 30 25 30 20 0 33 22 25 43 -2 7 9
26 25 41 17 16 28 33 25 38 -7 11 -21 10 -29 -1z"/>
<path d="M3191 3221 c-16 -10 -5 -54 12 -48 14 4 23 57 10 57 -4 0 -14 -4 -22
-9z"/>
<path d="M2966 3201 c-8 -12 10 -51 24 -51 20 0 21 23 2 42 -13 13 -22 16 -26
9z"/>
<path d="M3386 3125 c-9 -14 -12 -25 -7 -25 12 0 35 39 28 46 -2 3 -12 -7 -21
-21z"/>
<path d="M3618 3134 c-30 -16 -33 -21 -19 -43 11 -17 30 -6 42 26 12 33 10 34
-23 17z"/>
<path d="M1815 3123 c-74 -10 -197 -48 -271 -83 -215 -100 -371 -255 -475
-473 -65 -136 -82 -218 -83 -397 -1 -122 3 -171 18 -230 23 -90 64 -193 100
-252 14 -24 32 -52 39 -63 33 -53 70 -95 86 -95 9 0 50 -33 91 -73 166 -162
347 -248 585 -277 138 -17 312 5 444 57 85 34 97 45 118 110 17 53 17 56 -4
96 -32 62 -36 85 -23 118 16 38 -6 74 -51 84 -17 4 -44 20 -60 35 -28 26 -34
27 -95 22 -61 -5 -70 -8 -108 -46 -22 -23 -63 -52 -89 -66 -36 -18 -50 -32
-54 -53 -7 -32 -15 -39 -63 -47 -36 -6 -41 -17 -25 -66 10 -31 -19 -56 -53
-47 -15 5 -51 8 -80 8 -28 0 -52 3 -52 6 0 17 32 28 90 31 57 3 65 6 68 24 2
14 -5 24 -23 32 -33 15 -32 28 3 35 40 8 112 64 112 86 0 25 37 51 72 51 20 0
27 5 30 23 2 14 11 23 26 25 21 3 32 22 12 22 -18 0 -10 22 20 57 17 18 30 42
30 52 0 9 16 40 35 67 l35 49 -37 5 c-24 3 -33 8 -25 13 6 5 12 17 12 29 0 11
7 32 16 47 15 25 14 30 -25 111 -54 111 -57 200 -6 200 47 0 86 22 105 60 15
29 31 42 65 55 25 10 45 20 45 22 0 2 -7 14 -16 28 -11 17 -14 36 -9 68 5 29
3 47 -4 51 -6 4 -11 16 -11 26 0 14 10 21 35 26 30 5 35 10 35 35 0 15 -4 31
-10 34 -18 11 -10 35 11 35 19 0 21 4 15 31 -3 19 -1 38 6 46 15 18 1 31 -37
35 -26 3 -30 8 -37 47 -4 25 -11 48 -16 53 -10 10 -100 -8 -119 -24 -7 -6 -13
-19 -13 -30 0 -10 -18 -36 -40 -58 -34 -33 -40 -46 -40 -80 0 -27 -5 -43 -15
-46 -27 -11 -16 -41 30 -83 48 -44 55 -47 73 -29 9 9 12 4 12 -23 0 -23 -7
-42 -20 -54 -11 -10 -20 -26 -20 -36 0 -10 -14 -31 -31 -47 -28 -26 -30 -31
-18 -50 10 -17 10 -23 0 -36 -18 -21 -43 -20 -73 3 -13 11 -51 23 -83 28 -64
9 -95 35 -62 54 9 6 17 21 17 34 0 23 4 25 43 25 52 0 67 13 66 59 -1 65 -20
103 -59 116 -44 15 -46 39 -3 43 44 4 55 21 41 60 -20 52 -2 84 57 100 70 20
78 28 71 77 -5 33 -2 47 14 68 25 31 25 31 -64 47 -57 10 -219 11 -281 3z
m463 -440 c-51 -18 -54 -15 -23 17 28 29 30 30 43 13 11 -16 9 -19 -20 -30z
m-933 -1156 c13 -10 15 -16 6 -21 -12 -8 -41 10 -41 25 0 13 13 11 35 -4z
m180 -98 c16 -15 -60 -10 -81 5 -17 13 -15 14 26 9 25 -3 49 -9 55 -14z"/>
<path d="M2411 3044 c-12 -15 -21 -31 -21 -36 0 -19 28 -74 48 -91 20 -18 21
-18 46 20 30 43 33 79 10 111 -21 30 -58 28 -83 -4z"/>
<path d="M2630 3051 c0 -13 26 -32 33 -24 14 13 6 33 -13 33 -11 0 -20 -4 -20
-9z"/>
<path d="M3039 3037 c-14 -13 -29 -37 -32 -55 -5 -25 -2 -34 18 -49 22 -16 26
-29 31 -96 4 -43 11 -80 15 -83 4 -2 20 11 34 31 25 32 30 34 66 29 31 -5 40
-3 45 11 4 10 0 23 -10 33 -16 16 -18 16 -27 -1 -10 -17 -12 -17 -28 -3 -13
12 -18 33 -19 83 0 49 -6 73 -20 92 -25 34 -41 36 -73 8z"/>
<path d="M2958 3016 c-24 -18 -22 -26 5 -26 29 0 37 7 30 26 -6 17 -13 17 -35
0z"/>
<path d="M3400 3021 c0 -6 5 -13 10 -16 6 -3 10 1 10 9 0 9 -4 16 -10 16 -5 0
-10 -4 -10 -9z"/>
<path d="M2733 3008 c-6 -7 -13 -27 -16 -45 -6 -30 -4 -32 26 -35 26 -2 34 -9
42 -35 16 -50 25 -50 25 -2 0 85 -47 156 -77 117z"/>
<path d="M2625 2990 c-8 -12 20 -24 35 -15 6 3 8 11 5 16 -8 12 -32 12 -40 -1z"/>
<path d="M3626 2984 c-11 -28 4 -35 52 -28 43 6 61 17 62 37 0 4 -24 7 -54 7
-40 0 -55 -4 -60 -16z"/>
<path d="M2950 2868 c0 -16 5 -28 10 -28 13 0 13 20 0 40 -8 12 -10 9 -10 -12z"/>
<path d="M2846 2871 c-4 -7 -5 -15 -2 -18 9 -9 19 4 14 18 -4 11 -6 11 -12 0z"/>
<path d="M2672 2833 c2 -10 14 -19 26 -21 19 -3 23 1 20 15 -2 10 -14 19 -26
21 -19 3 -23 -1 -20 -15z"/>
<path d="M2786 2814 c-3 -8 -11 -12 -17 -9 -5 4 -19 -1 -30 -11 -23 -21 -19
-53 11 -92 l20 -24 9 25 c12 32 31 43 42 26 13 -22 11 45 -3 76 -13 29 -23 32
-32 9z"/>
<path d="M3287 2796 c-6 -15 1 -26 15 -26 4 0 8 9 8 20 0 23 -15 27 -23 6z"/>
<path d="M2606 2785 c-20 -20 -21 -41 -2 -48 10 -4 17 4 21 24 8 37 2 45 -19
24z"/>
<path d="M3211 2786 c-11 -13 -11 -20 -3 -28 8 -8 13 -7 18 5 10 27 0 41 -15
23z"/>
<path d="M3369 2751 c-19 -20 -29 -37 -25 -47 3 -9 6 -20 6 -25 0 -5 13 -9 29
-9 17 0 33 -4 36 -10 20 -32 40 36 26 87 -10 39 -35 40 -72 4z"/>
<path d="M2883 2748 c-23 -11 -31 -28 -13 -28 6 0 10 -6 10 -14 0 -8 4 -26 10
-41 l10 -26 30 23 c22 16 30 30 30 54 0 43 -29 55 -77 32z"/>
<path d="M2559 2669 c-25 -27 -32 -29 -45 -18 -14 11 -15 9 -12 -17 3 -26 7
-29 48 -34 57 -7 66 -13 80 -54 19 -58 54 -56 86 7 19 36 12 57 -19 57 -27 0
-47 17 -47 41 0 15 -39 49 -56 49 -3 0 -19 -14 -35 -31z"/>
<path d="M3106 2684 c-4 -9 -4 -32 0 -51 5 -29 9 -33 28 -27 32 10 56 35 56
59 0 17 -8 24 -31 29 -44 8 -46 8 -53 -10z"/>
<path d="M2842 2608 c-14 -14 -16 -48 -2 -48 10 0 30 32 30 49 0 14 -13 14
-28 -1z"/>
<path d="M2482 2568 c-7 -7 -12 -24 -12 -39 0 -16 -11 -40 -25 -55 -33 -35
-29 -64 9 -77 26 -9 32 -7 45 13 9 12 27 33 40 46 24 24 23 54 -3 54 -9 0 -16
12 -18 32 -3 35 -17 45 -36 26z"/>
<path d="M2880 2560 c0 -11 -7 -20 -15 -20 -8 0 -15 -8 -15 -18 0 -10 -7 -28
-16 -40 -14 -20 -14 -23 3 -29 10 -3 31 -15 46 -26 26 -18 27 -21 13 -36 -9
-10 -13 -20 -10 -23 3 -4 -15 -35 -40 -69 -26 -35 -51 -82 -57 -104 -10 -37
-7 -124 5 -144 8 -13 86 29 86 46 0 31 31 71 85 106 63 42 80 73 64 114 -16
43 -29 55 -45 42 -17 -14 -34 -3 -34 22 0 11 -6 22 -14 25 -12 5 -12 11 1 42
8 20 22 45 30 54 30 33 -9 78 -68 78 -12 0 -19 -7 -19 -20z"/>
<path d="M3161 2519 c-16 -47 -14 -58 15 -65 18 -5 32 0 50 17 32 30 30 45 -6
64 -41 21 -47 19 -59 -16z"/>
<path d="M3310 2530 c0 -5 5 -10 10 -10 6 0 10 5 10 10 0 6 -4 10 -10 10 -5 0
-10 -4 -10 -10z"/>
<path d="M3048 2444 c-3 -26 -1 -33 10 -29 7 3 16 5 18 5 11 0 2 49 -10 53
-10 4 -15 -4 -18 -29z"/>
<path d="M2723 2441 c-3 -11 -13 -21 -23 -24 -15 -4 -17 -12 -13 -45 7 -55
-11 -64 -121 -56 -65 5 -90 11 -102 25 -21 23 -33 24 -70 4 -16 -8 -48 -15
-72 -15 l-43 0 7 -37 c3 -21 19 -67 34 -103 44 -103 99 -123 169 -64 30 25 31
25 31 5 0 -15 6 -21 21 -21 11 0 33 -13 47 -30 40 -46 63 -40 91 26 15 34 41
70 69 94 37 33 43 42 32 55 -9 11 -23 13 -51 9 -38 -6 -39 -6 -39 25 0 31 1
31 50 31 38 0 52 4 60 19 21 39 12 66 -31 94 -39 26 -41 26 -46 8z"/>
<path d="M3300 2360 c0 -5 5 -10 10 -10 6 0 10 5 10 10 0 6 -4 10 -10 10 -5 0
-10 -4 -10 -10z"/>
<path d="M2465 2050 c-36 -24 -73 -25 -104 -4 -12 9 -26 12 -30 8 -63 -75 -91
-115 -87 -122 3 -5 20 -12 37 -16 l31 -6 -31 -37 c-17 -21 -31 -49 -31 -63 0
-14 -6 -32 -12 -39 -13 -14 -8 -13 95 5 31 5 36 3 56 -31 17 -30 26 -36 43
-32 12 4 28 1 35 -5 10 -8 18 -6 33 7 15 14 20 31 20 70 0 52 0 53 34 59 49 9
60 27 46 73 -25 81 -34 96 -66 109 -23 10 -32 19 -28 29 8 20 -5 19 -41 -5z"/>
<path d="M2701 1989 c-11 -18 -11 -23 1 -30 37 -24 67 8 36 39 -16 16 -21 15
-37 -9z"/>
<path d="M2916 1983 c-3 -4 -28 -7 -54 -8 -45 -1 -50 -5 -126 -81 -44 -43 -85
-93 -92 -111 -10 -22 -22 -33 -43 -38 -36 -8 -42 -23 -34 -80 3 -28 2 -45 -4
-45 -6 0 -22 -9 -37 -21 -22 -17 -24 -24 -15 -42 6 -12 20 -29 31 -38 20 -16
20 -16 -2 -93 -12 -42 -20 -88 -18 -102 l3 -25 65 42 c174 112 317 299 386
503 31 91 30 100 -10 125 -37 23 -40 24 -50 14z"/>
<path d="M222 768 c-8 -8 -12 -58 -12 -160 l0 -148 30 0 30 0 0 123 0 122 60
-109 c71 -129 76 -136 105 -136 30 0 43 17 109 140 l56 105 0 -123 0 -123 33
3 32 3 3 134 c3 152 -6 181 -58 181 -39 0 -49 -13 -116 -139 l-58 -110 -29 52
c-16 29 -44 82 -62 118 -19 37 -41 69 -50 73 -26 10 -60 7 -73 -6z"/>
<path d="M919 769 c-38 -14 -49 -48 -49 -155 0 -87 2 -97 24 -119 29 -29 93
-40 190 -32 60 5 74 10 94 32 19 23 22 37 22 118 0 115 -5 134 -41 152 -32 17
-197 20 -240 4z m199 -51 c8 -8 12 -45 12 -100 0 -103 -5 -108 -99 -108 -83 0
-91 10 -91 114 0 50 5 87 12 94 16 16 150 16 166 0z"/>
<path d="M1460 773 c-46 -18 -50 -31 -50 -154 0 -115 1 -119 25 -135 52 -34
239 -30 276 7 16 16 19 34 19 128 0 152 -3 155 -147 158 -59 1 -115 0 -123 -4z
m184 -49 c13 -5 16 -24 16 -100 0 -109 -4 -114 -94 -114 -87 0 -86 -2 -86 109
0 54 3 101 7 104 8 9 136 9 157 1z"/>
<path d="M1952 768 c-8 -8 -12 -58 -12 -160 l0 -148 30 0 30 0 0 120 c0 66 3
120 8 120 4 -1 44 -55 90 -120 77 -112 85 -120 116 -120 53 0 56 10 56 172 l0
148 -30 0 -30 0 0 -120 c0 -66 -4 -120 -8 -120 -5 0 -39 44 -76 99 -37 54 -76
108 -87 120 -22 23 -68 28 -87 9z"/>
<path d="M2480 620 l0 -161 33 3 c32 3 32 4 37 65 l5 62 85 -64 c63 -48 93
-65 118 -65 17 0 32 4 32 9 0 5 -33 33 -72 63 l-72 53 39 3 c61 4 84 11 105
32 27 27 27 99 1 131 -18 23 -26 24 -165 27 l-146 3 0 -161z m248 98 c16 -16
15 -65 0 -75 -7 -4 -50 -10 -96 -13 l-82 -5 0 53 0 52 83 0 c51 0 88 -5 95
-12z"/>
<path d="M3010 620 l0 -160 30 0 30 0 0 160 0 160 -30 0 -30 0 0 -160z"/>
<path d="M3323 770 c-38 -15 -44 -42 -41 -177 l3 -128 33 -3 32 -3 0 70 0 71
115 0 c108 0 115 1 115 20 0 18 -8 20 -112 22 l-113 3 -3 28 c-6 50 10 57 124
57 l104 0 0 25 0 25 -117 -1 c-65 0 -128 -4 -140 -9z"/>
<path d="M3770 755 c0 -24 3 -25 55 -25 l54 0 3 -132 3 -133 30 0 30 0 3 133
3 132 54 0 c52 0 55 1 55 25 l0 25 -145 0 -145 0 0 -25z"/>
</g>
</svg>
